<?xml version="1.0" standalone="no"?>
<!DOCTYPE svg PUBLIC "-//W3C//DTD SVG 20010904//EN"
 "http://www.w3.org/TR/2001/REC-SVG-20010904/DTD/svg10.dtd">
<svg version="1.0" xmlns="http://www.w3.org/2000/svg"
 width="260.000000pt" height="260.000000pt" viewBox="0 0 260.000000 260.000000"
 preserveAspectRatio="xMidYMid meet">
<metadata>
Created by potrace 1.11, written by Peter Selinger 2001-2013
</metadata>
<g transform="translate(0.000000,260.000000) scale(0.100000,-0.100000)"
fill="#000000" stroke="none">
<path d="M1495 2555 c-95 -28 -167 -89 -222 -187 -113 -201 -150 -514 -83
-699 18 -49 59 -119 70 -119 3 0 16 -9 29 -19 l24 -18 -58 -27 c-31 -14 -60
-26 -64 -26 -4 0 -15 17 -26 38 -33 64 -141 226 -171 255 -57 57 -111 70 -218
54 -268 -42 -432 -216 -421 -445 9 -172 52 -285 280 -738 159 -314 161 -318
224 -392 88 -106 210 -161 344 -156 69 3 201 34 272 64 79 34 158 47 300 51
181 5 322 80 373 198 14 33 46 144 58 200 3 12 11 51 19 85 12 53 19 95 30
171 2 11 6 34 9 50 27 151 27 498 1 680 -4 22 -8 57 -11 78 -3 20 -16 72 -30
113 -88 270 -285 341 -561 202 -134 -67 -175 -136 -175 -297 l0 -78 -81 -37
c-44 -20 -81 -35 -83 -33 -3 2 -11 81 -19 177 -6 77 -7 268 -1 278 2 4 6 31
10 60 20 171 108 307 240 374 33 17 66 38 74 47 15 19 8 70 -13 90 -18 18 -70
21 -120 6z m443 -812 c52 -38 82 -98 97 -193 12 -79 15 -112 21 -260 8 -178 8
-176 0 -255 -3 -33 -8 -89 -12 -125 -3 -36 -7 -76 -10 -90 -2 -14 -6 -50 -9
-80 -3 -30 -7 -62 -10 -70 -2 -8 -7 -30 -10 -49 -8 -45 -27 -81 -61 -111 -54
-47 -79 -58 -154 -64 -78 -6 -136 -14 -157 -21 -14 -5 -32 23 -39 58 -13 71
-63 199 -107 274 -98 170 -129 261 -153 443 -8 55 -10 58 -30 38 -24 -24 -34
-84 -29 -183 7 -163 39 -301 94 -414 44 -89 77 -181 83 -225 3 -27 0 -29 -92
-61 -52 -18 -108 -38 -125 -44 -101 -42 -190 -32 -251 26 -39 39 -102 167
-226 458 -141 329 -196 488 -192 553 6 129 100 201 279 216 22 1 54 10 72 19
18 10 34 17 37 17 10 0 64 -86 116 -183 57 -106 75 -120 131 -97 33 14 151 88
159 100 14 20 122 71 158 74 56 4 72 19 65 59 -3 18 -6 58 -7 90 l-2 57 32 0
c18 0 71 15 119 34 102 39 169 42 213 9z"/>
</g>
</svg>
